# xmcd
#
# Track frame offsets:
#	150
#	13080
#	25472
#	37270
#	47257
#	60495
#	74007
#	84947
#	96505
#	108382
#	117892
#	129915
#	139990
#	152655
#	162840
#	176127
#	187950
#	201722
#	213317
#	224500
#
# Disc length: 3161 seconds
#
# Revision: 1
# Processed by: cddbd v1.4b42PL1 Copyright (c) Steve Scherf et al.
# Submitted via: audiograbber 1.80
#
DISCID=2a0c5714
DTITLE=Various Artist - Country Music Hall Of Fame
DYEAR=1900
DGENRE=
TTITLE0=Patsy Cline - I Fall To Pieces
TTITLE1=Patsy Cline - Crazy
TTITLE2=Patsy Cline - Sweet Dreams
TTITLE3=Patsy Cline - Have You Ever Been Lonely
TTITLE4=Patsy Cline - Leavin' On Your Mind
TTITLE5=Webb Pierce - Wondering
TTITLE6=Webb Pierce - There Stands A Glass
TTITLE7=Webb Pierce - Slowly
TTITLE8=Webb Pierce - Your Not Mine Enymore
TTITLE9=Webb Pierce - In The Jailhouse Now
TTITLE10=Kitty Wells - It Wasn't God Who Made Honky Tonk Angels
TTITLE11=Kitty Wells - Release Me
TTITLE12=Kitty Wells - Making Believe
TTITLE13=Kitty Wells - I Can't Stop Loving You
TTITLE14=Kitty Wells - Heartaches By The Number
TTITLE15=Ernest Tubb And His Texas Troubadours - Wakling The Floor Over You
TTITLE16=Ernest Tubb And His Texas Troubadours - Goodnight Irene
TTITLE17=Ernest Tubb And His Texas Troubadours - Thanks A Lot
TTITLE18=Ernest Tubb And His Texas Troubadours - The Yellow Rose Of Texas
TTITLE19=Ernest Tubb And His Texas Troubadours - I Love You Because
EXTD=
EXTT0=
EXTT1=
EXTT2=
EXTT3=
EXTT4=
EXTT5=
EXTT6=
EXTT7=
EXTT8=
EXTT9=
EXTT10=
EXTT11=
EXTT12=
EXTT13=
EXTT14=
EXTT15=
EXTT16=
EXTT17=
EXTT18=
EXTT19=
PLAYORDER=
